<svg width="20" height="20" viewBox="0 0 20 20" fill="none" xmlns="http://www.w3.org/2000/svg">
<path d="M9.16675 14.1666H10.8334V10.8333H14.1667V9.16663H10.8334V5.83329H9.16675V9.16663H5.83341V10.8333H9.16675V14.1666ZM10.0001 18.3333C8.8473 18.3333 7.76397 18.1144 6.75008 17.6766C5.73619 17.2388 4.85425 16.6452 4.10425 15.8958C3.35425 15.1458 2.76064 14.2638 2.32341 13.25C1.88619 12.2361 1.6673 11.1527 1.66675 9.99996C1.66675 8.84718 1.88564 7.76385 2.32341 6.74996C2.76119 5.73607 3.3548 4.85413 4.10425 4.10413C4.85425 3.35413 5.73619 2.76051 6.75008 2.32329C7.76397 1.88607 8.8473 1.66718 10.0001 1.66663C11.1529 1.66663 12.2362 1.88551 13.2501 2.32329C14.264 2.76107 15.1459 3.35468 15.8959 4.10413C16.6459 4.85413 17.2398 5.73607 17.6776 6.74996C18.1154 7.76385 18.334 8.84718 18.3334 9.99996C18.3334 11.1527 18.1145 12.2361 17.6767 13.25C17.239 14.2638 16.6454 15.1458 15.8959 15.8958C15.1459 16.6458 14.264 17.2397 13.2501 17.6775C12.2362 18.1152 11.1529 18.3338 10.0001 18.3333ZM10.0001 16.6666C11.8612 16.6666 13.4376 16.0208 14.7292 14.7291C16.0209 13.4375 16.6667 11.8611 16.6667 9.99996C16.6667 8.13885 16.0209 6.56246 14.7292 5.27079C13.4376 3.97913 11.8612 3.33329 10.0001 3.33329C8.13897 3.33329 6.56258 3.97913 5.27091 5.27079C3.97925 6.56246 3.33341 8.13885 3.33341 9.99996C3.33341 11.8611 3.97925 13.4375 5.27091 14.7291C6.56258 16.0208 8.13897 16.6666 10.0001 16.6666Z" fill="white"/>
</svg>
