<svg width="30" height="30" viewBox="0 0 30 30" fill="none" xmlns="http://www.w3.org/2000/svg">
<path d="M6.25 3.75H23.75C24.413 3.75 25.0489 4.01339 25.5178 4.48223C25.9866 4.95107 26.25 5.58696 26.25 6.25V23.75C26.25 24.413 25.9866 25.0489 25.5178 25.5178C25.0489 25.9866 24.413 26.25 23.75 26.25H6.25C5.58696 26.25 4.95107 25.9866 4.48223 25.5178C4.01339 25.0489 3.75 24.413 3.75 23.75V6.25C3.75 5.58696 4.01339 4.95107 4.48223 4.48223C4.95107 4.01339 5.58696 3.75 6.25 3.75ZM8.75 6.25C8.08696 6.25 7.45107 6.51339 6.98223 6.98223C6.51339 7.45107 6.25 8.08696 6.25 8.75C6.25 9.41304 6.51339 10.0489 6.98223 10.5178C7.45107 10.9866 8.08696 11.25 8.75 11.25C9.41304 11.25 10.0489 10.9866 10.5178 10.5178C10.9866 10.0489 11.25 9.41304 11.25 8.75C11.25 8.08696 10.9866 7.45107 10.5178 6.98223C10.0489 6.51339 9.41304 6.25 8.75 6.25ZM21.25 18.75C20.587 18.75 19.9511 19.0134 19.4822 19.4822C19.0134 19.9511 18.75 20.587 18.75 21.25C18.75 21.913 19.0134 22.5489 19.4822 23.0178C19.9511 23.4866 20.587 23.75 21.25 23.75C21.913 23.75 22.5489 23.4866 23.0178 23.0178C23.4866 22.5489 23.75 21.913 23.75 21.25C23.75 20.587 23.4866 19.9511 23.0178 19.4822C22.5489 19.0134 21.913 18.75 21.25 18.75ZM21.25 6.25C20.587 6.25 19.9511 6.51339 19.4822 6.98223C19.0134 7.45107 18.75 8.08696 18.75 8.75C18.75 9.41304 19.0134 10.0489 19.4822 10.5178C19.9511 10.9866 20.587 11.25 21.25 11.25C21.913 11.25 22.5489 10.9866 23.0178 10.5178C23.4866 10.0489 23.75 9.41304 23.75 8.75C23.75 8.08696 23.4866 7.45107 23.0178 6.98223C22.5489 6.51339 21.913 6.25 21.25 6.25ZM15 12.5C14.337 12.5 13.7011 12.7634 13.2322 13.2322C12.7634 13.7011 12.5 14.337 12.5 15C12.5 15.663 12.7634 16.2989 13.2322 16.7678C13.7011 17.2366 14.337 17.5 15 17.5C15.663 17.5 16.2989 17.2366 16.7678 16.7678C17.2366 16.2989 17.5 15.663 17.5 15C17.5 14.337 17.2366 13.7011 16.7678 13.2322C16.2989 12.7634 15.663 12.5 15 12.5ZM8.75 18.75C8.08696 18.75 7.45107 19.0134 6.98223 19.4822C6.51339 19.9511 6.25 20.587 6.25 21.25C6.25 21.913 6.51339 22.5489 6.98223 23.0178C7.45107 23.4866 8.08696 23.75 8.75 23.75C9.41304 23.75 10.0489 23.4866 10.5178 23.0178C10.9866 22.5489 11.25 21.913 11.25 21.25C11.25 20.587 10.9866 19.9511 10.5178 19.4822C10.0489 19.0134 9.41304 18.75 8.75 18.75Z" fill="white"/>
</svg>
