<svg width="20" height="20" viewBox="0 0 20 20" fill="none" xmlns="http://www.w3.org/2000/svg">
<path d="M18.3334 9.99996C18.3334 5.39746 14.6026 1.66663 10.0001 1.66663C5.39758 1.66663 1.66675 5.39746 1.66675 9.99996C1.66675 14.6025 5.39758 18.3333 10.0001 18.3333C14.6026 18.3333 18.3334 14.6025 18.3334 9.99996ZM13.5434 8.74996H6.46008C6.29432 8.74996 6.13535 8.68411 6.01814 8.5669C5.90093 8.44969 5.83508 8.29072 5.83508 8.12496C5.83508 7.9592 5.90093 7.80023 6.01814 7.68302C6.13535 7.56581 6.29432 7.49996 6.46008 7.49996H13.5434C13.7092 7.49996 13.8681 7.56581 13.9854 7.68302C14.1026 7.80023 14.1684 7.9592 14.1684 8.12496C14.1684 8.29072 14.1026 8.44969 13.9854 8.5669C13.8681 8.68411 13.7092 8.74996 13.5434 8.74996ZM13.5434 12.5H6.46008C6.29432 12.5 6.13535 12.4341 6.01814 12.3169C5.90093 12.1997 5.83508 12.0407 5.83508 11.875C5.83508 11.7092 5.90093 11.5502 6.01814 11.433C6.13535 11.3158 6.29432 11.25 6.46008 11.25H13.5434C13.7092 11.25 13.8681 11.3158 13.9854 11.433C14.1026 11.5502 14.1684 11.7092 14.1684 11.875C14.1684 12.0407 14.1026 12.1997 13.9854 12.3169C13.8681 12.4341 13.7092 12.5 13.5434 12.5Z" fill="#408BB6"/>
</svg>
