<svg width="20" height="20" viewBox="0 0 20 20" fill="none" xmlns="http://www.w3.org/2000/svg">
<path d="M5.83341 9.99996C5.83341 10.4583 6.20841 10.8333 6.66675 10.8333H13.3334C13.7917 10.8333 14.1667 10.4583 14.1667 9.99996C14.1667 9.54163 13.7917 9.16663 13.3334 9.16663H6.66675C6.20841 9.16663 5.83341 9.54163 5.83341 9.99996ZM10.0001 1.66663C5.40008 1.66663 1.66675 5.39996 1.66675 9.99996C1.66675 14.6 5.40008 18.3333 10.0001 18.3333C14.6001 18.3333 18.3334 14.6 18.3334 9.99996C18.3334 5.39996 14.6001 1.66663 10.0001 1.66663ZM10.0001 16.6666C6.32508 16.6666 3.33341 13.675 3.33341 9.99996C3.33341 6.32496 6.32508 3.33329 10.0001 3.33329C13.6751 3.33329 16.6667 6.32496 16.6667 9.99996C16.6667 13.675 13.6751 16.6666 10.0001 16.6666Z" fill="#931818"/>
</svg>
