<svg width="40" height="40" viewBox="0 0 40 40" fill="none" xmlns="http://www.w3.org/2000/svg">
<g opacity="0.5">
<path d="M18.3333 26.6667H21.6666V19.6667L24.3333 22.3334L26.6666 20L19.9999 13.3334L13.3333 20L15.6666 22.3334L18.3333 19.6667V26.6667ZM19.9999 36.6667C17.6944 36.6667 15.5277 36.2289 13.4999 35.3534C11.4721 34.4778 9.70825 33.2906 8.20825 31.7917C6.70825 30.2917 5.52103 28.5278 4.64659 26.5C3.77214 24.4723 3.33436 22.3056 3.33325 20C3.33325 17.6945 3.77103 15.5278 4.64659 13.5C5.52214 11.4723 6.70936 9.70837 8.20825 8.20837C9.70825 6.70837 11.4721 5.52115 13.4999 4.64671C15.5277 3.77226 17.6944 3.33449 19.9999 3.33337C22.3055 3.33337 24.4721 3.77115 26.4999 4.64671C28.5277 5.52226 30.2916 6.70949 31.7916 8.20837C33.2916 9.70837 34.4794 11.4723 35.3549 13.5C36.2305 15.5278 36.6677 17.6945 36.6666 20C36.6666 22.3056 36.2288 24.4723 35.3533 26.5C34.4777 28.5278 33.2905 30.2917 31.7916 31.7917C30.2916 33.2917 28.5277 34.4795 26.4999 35.355C24.4721 36.2306 22.3055 36.6678 19.9999 36.6667ZM19.9999 33.3334C23.7221 33.3334 26.8749 32.0417 29.4583 29.4584C32.0416 26.875 33.3333 23.7223 33.3333 20C33.3333 16.2778 32.0416 13.125 29.4583 10.5417C26.8749 7.95837 23.7221 6.66671 19.9999 6.66671C16.2777 6.66671 13.1249 7.95837 10.5416 10.5417C7.95825 13.125 6.66659 16.2778 6.66659 20C6.66659 23.7223 7.95825 26.875 10.5416 29.4584C13.1249 32.0417 16.2777 33.3334 19.9999 33.3334Z" fill="white"/>
</g>
</svg>
