<svg width="20" height="20" viewBox="0 0 20 20" fill="none" xmlns="http://www.w3.org/2000/svg">
<path d="M9.06268 16.0833L3.56268 10.5833C3.47934 10.5 3.42018 10.4097 3.38518 10.3125C3.35018 10.2153 3.33295 10.1111 3.33351 10C3.33351 9.8889 3.35101 9.78473 3.38601 9.68751C3.42101 9.59029 3.4799 9.50001 3.56268 9.41668L9.06268 3.91668C9.21545 3.7639 9.40656 3.68418 9.63601 3.67751C9.86545 3.67084 10.0632 3.75057 10.2293 3.91668C10.396 4.06945 10.483 4.26057 10.4902 4.49001C10.4974 4.71945 10.4174 4.91723 10.2502 5.08334L6.16684 9.16668H15.4793C15.7155 9.16668 15.9135 9.24668 16.0735 9.40668C16.2335 9.56668 16.3132 9.76445 16.3127 10C16.3127 10.2361 16.233 10.4342 16.0735 10.5942C15.9141 10.7542 15.716 10.8339 15.4793 10.8333H6.16684L10.2502 14.9167C10.403 15.0695 10.483 15.2639 10.4902 15.5C10.4974 15.7361 10.4174 15.9306 10.2502 16.0833C10.0974 16.25 9.90295 16.3333 9.66684 16.3333C9.43073 16.3333 9.22934 16.25 9.06268 16.0833Z" fill="white"/>
</svg>
