<svg width="20" height="20" viewBox="0 0 20 20" fill="none" xmlns="http://www.w3.org/2000/svg">
<path d="M10.8333 10.1667L10.8333 7.50004C10.8333 7.26393 10.7533 7.06587 10.5933 6.90587C10.4333 6.74587 10.2355 6.66615 9.99992 6.66671C9.76381 6.66671 9.56575 6.74671 9.40575 6.90671C9.24575 7.06671 9.16603 7.26448 9.16659 7.50004L9.16659 10.1667L8.41659 9.41671C8.26381 9.26393 8.06936 9.18754 7.83325 9.18754C7.59714 9.18754 7.4027 9.26393 7.24992 9.41671C7.09714 9.56948 7.02075 9.76393 7.02075 10C7.02075 10.2362 7.09714 10.4306 7.24992 10.5834L9.41659 12.75C9.58325 12.9167 9.7777 13 9.99992 13C10.2221 13 10.4166 12.9167 10.5833 12.75L12.7499 10.5834C12.9027 10.4306 12.9791 10.2362 12.9791 10C12.9791 9.76393 12.9027 9.56949 12.7499 9.41671C12.5971 9.26393 12.4027 9.18754 12.1666 9.18754C11.9305 9.18754 11.736 9.26393 11.5833 9.41671L10.8333 10.1667ZM9.99992 1.66671C11.1527 1.66671 12.236 1.8856 13.2499 2.32337C14.2638 2.76115 15.1458 3.35476 15.8958 4.10421C16.6458 4.85421 17.2394 5.73615 17.6766 6.75004C18.1138 7.76393 18.3327 8.84726 18.3333 10C18.3333 11.1528 18.1144 12.2362 17.6766 13.25C17.2388 14.2639 16.6452 15.1459 15.8958 15.8959C15.1458 16.6459 14.2638 17.2395 13.2499 17.6767C12.236 18.1139 11.1527 18.3328 9.99992 18.3334C8.84714 18.3334 7.76381 18.1145 6.74992 17.6767C5.73603 17.2389 4.85409 16.6453 4.10409 15.8959C3.35409 15.1459 2.7602 14.2639 2.32242 13.25C1.88464 12.2362 1.66603 11.1528 1.66659 10C1.66659 8.84726 1.88548 7.76393 2.32325 6.75004C2.76103 5.73615 3.35464 4.85421 4.10409 4.10421C4.85409 3.35421 5.73603 2.76032 6.74992 2.32254C7.76381 1.88476 8.84714 1.66615 9.99992 1.66671Z" fill="#B62424"/>
</svg>
