<svg width="20" height="20" viewBox="0 0 20 20" fill="none" xmlns="http://www.w3.org/2000/svg">
<path d="M10.0001 1.66663C5.41675 1.66663 1.66675 5.41663 1.66675 9.99996C1.66675 14.5833 5.41675 18.3333 10.0001 18.3333C14.5834 18.3333 18.3334 14.5833 18.3334 9.99996C18.3334 5.41663 14.5834 1.66663 10.0001 1.66663ZM10.0001 16.6666C6.32508 16.6666 3.33341 13.675 3.33341 9.99996C3.33341 6.32496 6.32508 3.33329 10.0001 3.33329C13.6751 3.33329 16.6667 6.32496 16.6667 9.99996C16.6667 13.675 13.6751 16.6666 10.0001 16.6666ZM13.8251 6.31663L8.33341 11.8083L6.17508 9.65829L5.00008 10.8333L8.33341 14.1666L15.0001 7.49996L13.8251 6.31663Z" fill="#119416"/>
</svg>
