<svg width="30" height="30" viewBox="0 0 30 30" fill="none" xmlns="http://www.w3.org/2000/svg">
<g clip-path="url(#clip0_1318_11589)">
<path d="M28.1395 12.1598L25.7334 11.6259C25.5459 11.0259 25.3003 10.4517 25.0186 9.89956L26.3203 7.73065C26.8063 6.95394 27.052 5.81112 26.3203 5.07894L24.9937 3.75331C24.262 3.02112 23.0264 3.15284 22.2801 3.67034L20.1698 5.01469C19.6223 4.73063 19.0499 4.48734 18.4551 4.29516L17.9151 1.86C17.7539 0.967061 16.9729 0 15.9375 0H14.0625C13.027 0 12.3923 0.981562 12.1875 1.875L11.5861 4.28109C10.9509 4.48359 10.3411 4.74234 9.75982 5.04891L7.59653 3.67125C6.85075 3.15375 5.61466 3.02203 4.88294 3.75422L3.55685 5.07984C2.82466 5.8125 3.07028 6.95484 3.55685 7.73156L4.92653 10.0144C4.66969 10.5319 4.44185 11.0672 4.26606 11.6264L1.86044 12.1603C0.967002 12.3211 0 13.102 0 14.1375V16.0125C0 17.048 0.981562 17.6827 1.875 17.8875L4.31109 18.4964C4.4794 19.013 4.68984 19.5089 4.92797 19.9898L3.55687 22.275C3.07081 23.0513 2.82519 24.1941 3.55687 24.9262L4.88344 26.2519C5.61516 26.9845 6.85078 26.8523 7.59703 26.3353L9.765 24.9539C10.3495 25.2623 10.9627 25.5234 11.602 25.7255L12.202 28.125C12.4073 29.0184 13.0415 30 14.077 30H15.952C16.9875 30 17.7684 29.033 17.9297 28.1395L18.4706 25.6978C19.0593 25.5075 19.6242 25.2675 20.1651 24.9872L22.2801 26.3348C23.0264 26.8523 24.2625 26.9841 24.9937 26.2514L26.3203 24.9258C27.052 24.1931 26.8064 23.0508 26.3203 22.2745L25.0177 20.1028C25.2797 19.5881 25.5066 19.0528 25.6889 18.4959L28.125 17.8875C29.0184 17.6822 30 17.048 30 16.0125V14.1375C30 13.102 29.0334 12.3211 28.1395 12.1598ZM28.1259 15.8803C28.0462 15.9375 27.8962 16.0161 27.7058 16.0602L24.2296 16.9283L23.9071 17.9136C23.7613 18.3575 23.5729 18.808 23.347 19.2528L22.8763 20.1777L24.7129 23.24C24.8301 23.4275 24.8849 23.5953 24.9013 23.6942L23.6681 24.9256C23.549 24.8881 23.4135 24.8394 23.3484 24.7949L20.2621 22.8266L19.3026 23.323C18.8404 23.563 18.366 23.7618 17.8935 23.9146L16.8716 24.245L16.0991 27.7349C16.0635 27.9214 15.9637 28.0719 15.8952 28.1258H14.2077C14.1506 28.0461 14.0723 27.8961 14.0287 27.7063L13.1657 24.2549L12.1668 23.938C11.6521 23.7758 11.1389 23.5597 10.6392 23.2963L9.67497 22.7872L6.58825 24.7545C6.46216 24.8399 6.32716 24.8881 6.20481 24.8881L4.97528 23.6914C4.99169 23.5944 5.04278 23.4341 5.14497 23.2705L7.06263 20.0755L6.60653 19.1573C6.39372 18.7241 6.22497 18.3177 6.09372 17.9151L5.77169 16.9288L2.32963 16.0682C2.11307 16.0189 1.9565 15.9383 1.87494 15.8807V14.1374C1.87626 14.138 1.87772 14.1383 1.87919 14.1383C1.9106 14.1383 2.06481 14.0286 2.19325 14.0052L5.72997 13.2219L6.05479 12.1883C6.18697 11.7674 6.36744 11.3286 6.60603 10.8472L7.06213 9.92848L5.16466 6.76676C5.047 6.57832 4.99263 6.41051 4.97622 6.31207L6.20903 5.0797C6.32856 5.11813 6.4631 5.16642 6.52778 5.21095L9.67169 7.21485L10.635 6.70673C11.1295 6.44613 11.6409 6.23098 12.1556 6.06738L13.1522 5.75004L14.0071 2.32913C14.0568 2.1126 14.1365 1.95604 14.1946 1.87444H15.9375C15.9248 1.89369 16.0453 2.05726 16.0701 2.19275L16.8576 5.74963L17.8786 6.07963C18.3572 6.23432 18.8381 6.43588 19.3059 6.67869L20.2654 7.17697L23.2875 5.25182C23.414 5.16554 23.5495 5.11775 23.6709 5.11775L24.9014 6.31354C24.885 6.41104 24.8334 6.57182 24.7312 6.73588L22.8754 9.82635L23.3489 10.7526C23.6043 11.2523 23.7993 11.721 23.9442 12.186L24.2681 13.2215L27.7336 13.9907C27.9432 14.0296 28.1063 14.1506 28.141 14.2162L28.1259 15.8803ZM15.0126 9.36545C11.8992 9.36545 9.36604 11.8934 9.36604 14.9998C9.36604 18.1058 11.8992 20.6337 15.0126 20.6337C18.126 20.6337 20.6592 18.1058 20.6592 14.9998C20.6592 11.8934 18.126 9.36545 15.0126 9.36545ZM14.9999 18.7498C12.9323 18.7498 11.2499 17.0675 11.2499 14.9998C11.2499 12.9317 12.9323 11.2498 14.9999 11.2498C17.0681 11.2498 18.7499 12.9317 18.7499 14.9998C18.7499 17.0675 17.0676 18.7498 14.9999 18.7498Z" fill="white"/>
</g>
<defs>
<clipPath id="clip0_1318_11589">
<rect width="30" height="30" fill="white"/>
</clipPath>
</defs>
</svg>
