<svg width="20" height="20" viewBox="0 0 20 20" fill="none" xmlns="http://www.w3.org/2000/svg">
<path d="M9.16675 9.83329V12.5C9.16675 12.7361 9.24675 12.9341 9.40675 13.0941C9.56675 13.2541 9.76453 13.3338 10.0001 13.3333C10.2362 13.3333 10.4342 13.2533 10.5942 13.0933C10.7542 12.9333 10.834 12.7355 10.8334 12.5V9.83329L11.5834 10.5833C11.7362 10.7361 11.9306 10.8125 12.1667 10.8125C12.4029 10.8125 12.5973 10.7361 12.7501 10.5833C12.9029 10.4305 12.9792 10.2361 12.9792 9.99996C12.9792 9.76385 12.9029 9.5694 12.7501 9.41663L10.5834 7.24996C10.4167 7.08329 10.2223 6.99996 10.0001 6.99996C9.77786 6.99996 9.58341 7.08329 9.41675 7.24996L7.25008 9.41663C7.0973 9.5694 7.02091 9.76385 7.02091 9.99996C7.02091 10.2361 7.0973 10.4305 7.25008 10.5833C7.40286 10.7361 7.5973 10.8125 7.83341 10.8125C8.06953 10.8125 8.26397 10.7361 8.41675 10.5833L9.16675 9.83329ZM10.0001 18.3333C8.8473 18.3333 7.76397 18.1144 6.75008 17.6766C5.73619 17.2388 4.85425 16.6452 4.10425 15.8958C3.35425 15.1458 2.76064 14.2638 2.32341 13.25C1.88619 12.2361 1.6673 11.1527 1.66675 9.99996C1.66675 8.84718 1.88564 7.76385 2.32341 6.74996C2.76119 5.73607 3.3548 4.85413 4.10425 4.10413C4.85425 3.35413 5.73619 2.76051 6.75008 2.32329C7.76397 1.88607 8.8473 1.66718 10.0001 1.66663C11.1529 1.66663 12.2362 1.88551 13.2501 2.32329C14.264 2.76107 15.1459 3.35468 15.8959 4.10413C16.6459 4.85413 17.2398 5.73607 17.6776 6.74996C18.1154 7.76385 18.334 8.84718 18.3334 9.99996C18.3334 11.1527 18.1145 12.2361 17.6767 13.25C17.239 14.2638 16.6454 15.1458 15.8959 15.8958C15.1459 16.6458 14.264 17.2397 13.2501 17.6775C12.2362 18.1152 11.1529 18.3338 10.0001 18.3333Z" fill="#5FAF42"/>
</svg>
